# xmcd
#
# Track frame offsets:
# 150
# 18466
# 39064
# 55524
# 70437
# 87307
# 106379
# 126356
# 142894
# 159027
# 175679
# 193129
# 210528
# 226144
#
# Disc length: 3227 seconds
#
#
# Revision: 1
# Processed by: cddbd v1.5.2PL0 Copyright (c) Steve Scherf et al.
# Submitted via: FreeRIP 2.96 
#
DISCID=ae0c990e
DTITLE=Eduardo Costa - Autoral
DYEAR=2006
DGENRE=Sertanejo
TTITLE0=Voce Pisou na Bola
TTITLE1=Coração Aberto
TTITLE2=É Amor Demais
TTITLE3=Pra Afastar a Solidão
TTITLE4=Não vai Embora
TTITLE5=É de Madrugada
TTITLE6=Rasgando a Madrugada
TTITLE7=Fera Machucada
TTITLE8=Por Amar Voce
TTITLE9=Ilusão
TTITLE10=Eu Amo essa Bandida
TTITLE11=Labirinto de Saudade
TTITLE12=Percebi Tarde Demais
TTITLE13=nao preciso de voce
EXTD=
EXTT0=
EXTT1=
EXTT2=
EXTT3=
EXTT4=
EXTT5=
EXTT6=
EXTT7=
EXTT8=
EXTT9=
EXTT10=
EXTT11=
EXTT12=
EXTT13=
PLAYORDER=
